<?xml version="1.0" encoding="UTF-8"?>
<svg id="Layer_1" xmlns="http://www.w3.org/2000/svg" version="1.1" viewBox="0 0 800 800">
  <!-- Generator: Adobe Illustrator 29.4.0, SVG Export Plug-In . SVG Version: 2.1.0 Build 152)  -->
  <defs>
    <style>
      .st0 {
        fill: #faf6ea;
      }

      .st1 {
        fill: #5d757b;
      }

      .st2 {
        fill: #c95730;
      }
    </style>
  </defs>
  <path class="st2" d="M381.02,100.73l-157.68,186.23c-1.06,1.25-.17,3.17,1.47,3.17h24.82c2.86,0,5.62-1.01,7.81-2.86l81.68-69.12c1.58-1.34,3.87-1.4,5.52-.16l53.47,40.18c1.64,1.23,3.9-.35,3.31-2.31l-21.79-72.44c-.96-3.2,3-5.56,5.36-3.19l109.28,108.81c1.84,1.83,4.32,2.85,6.91,2.85h9.78c1.56,0,2.67-1.53,2.17-3.01l-16.62-50.14c-1.13-3.42,2.82-6.27,5.7-4.1l72.43,54.4c.62.46,1.38.71,2.15.69l12.41-.28c.99-.02,1.51-1.18.87-1.93l-87.55-103.09c-1.29-1.52-3.6-1.65-5.04-.27l-19.37,18.49c-1.26,1.23-3.31,1.12-4.43-.24l-83.77-101.6c-2.29-2.81-6.56-2.85-8.9-.09Z"/>
  <circle class="st2" cx="547.17" cy="143.04" r="38.24"/>
  <path class="st1" d="M273.19,124.6l-139.04,165.28c-.17.2-.02.51.24.5l9.93-.11c.66,0,1.3-.22,1.83-.62l115.49-86.75c.12-.09.3-.08.41.03l15.16,15.81c.13.13.34.12.46-.01l26.83-31.7c.08-.09.1-.23.04-.34l-30.84-62.04c-.1-.2-.37-.23-.51-.06Z"/>
  <path class="st1" d="M554.87,242.02l39.58-48.99c1.07-1.42,3.18-1.49,4.35-.14l84.48,97.37h-20.25l-60.56-35.3c-1.25-.73-2.71-1.05-4.15-.93l-27.84,4.64-15.59-16.66Z"/>
  <path class="st0" d="M648.01,43.32H151.29c-57.99,0-104.99,47.01-104.99,104.99v503.12c0,57.99,47.01,104.99,104.99,104.99h496.72c57.99,0,104.99-47.01,104.99-104.99V148.31c0-57.99-47.01-104.99-104.99-104.99ZM730.35,651.43c0,45.4-36.94,82.34-82.34,82.34H151.29c-45.4,0-82.34-36.94-82.34-82.34V148.31c0-45.4,36.94-82.34,82.34-82.34h496.72c45.4,0,82.34,36.94,82.34,82.34v503.12Z"/>
  <g>
    <path class="st0" d="M250.61,358.29v4c0,14.46-6.9,26.25-22.02,32.04,17.13,3.34,27.81,15.8,27.81,33.15v4.45c0,24.03-16.02,41.16-54.28,41.16-11.35,0-19.8-.22-36.04-.89-4-.22-6.23-2.22-6.23-6.45v-136.38c0-4,2-6.23,6.45-6.45,10.23-.44,23.58-.89,34.48-.89,33.37,0,49.83,15.57,49.83,36.26ZM186.31,345.61v39.82h16.24c14.24,0,21.58-7.34,21.58-19.36v-3.56c0-11.12-7.12-17.35-25.14-17.35-4,0-7.79,0-12.68.44ZM186.31,407.68v41.16c8.45.67,10.46.89,16.24.89,19.35,0,27.14-7.79,27.14-19.8v-4c0-11.57-7.56-18.24-25.81-18.24h-17.58Z"/>
    <path class="st0" d="M348.71,324.7c4.23,0,6.45,2.22,6.45,6.23v11.79c0,4.23-2.22,6.45-6.45,6.45h-48.28v35.15h43.83c4.23,0,6.45,2.22,6.45,6.23v11.57c0,4-2.23,6.45-6.45,6.45h-43.83v37.38h48.28c4.23,0,6.45,2.22,6.45,6.45v11.79c0,4-2.22,6.23-6.45,6.23h-68.52c-4,0-6.23-2.22-6.23-6.23v-133.26c0-4,2.22-6.23,6.23-6.23h68.52Z"/>
    <path class="st0" d="M398.1,324.7c4,0,6.23,2.22,6.23,6.23v115.46h48.94c4.23,0,6.45,2.22,6.45,6.23v11.57c0,4-2.22,6.23-6.45,6.23h-69.19c-4,0-6.23-2.22-6.23-6.23v-133.26c0-4,2.22-6.23,6.23-6.23h14.02Z"/>
    <path class="st0" d="M535.36,324.7c3.78,0,6.01,1.78,7.12,5.34l39.6,133.26c1.33,4.45-.67,7.12-5.34,7.12h-15.57c-3.78,0-6.01-1.78-6.9-5.34l-6.45-25.14h-46.5l-6.45,25.14c-.89,3.56-3.11,5.34-6.9,5.34h-14.46c-4.67,0-6.45-2.67-5.12-7.12l39.38-133.26c.89-3.56,3.34-5.34,7.12-5.34h20.47ZM506.66,417.25h35.82l-17.8-70.3-18.02,70.3Z"/>
    <path class="st0" d="M672.85,324.7c4.89,0,6.67,3.11,4.89,7.34l-38.93,88.1v44.05c0,4-2.22,6.23-6.23,6.23h-14.02c-4,0-6.23-2.22-6.23-6.23v-44.05l-38.93-88.1c-2-4.23,0-7.34,4.89-7.34h16.46c3.56,0,5.78,1.56,7.12,5.12l23.8,64.52,24.03-64.74c1.33-3.34,3.56-4.89,7.34-4.89h15.8Z"/>
  </g>
  <g>
    <path class="st0" d="M200.73,546v4c0,14.46-6.9,26.25-22.02,32.04,17.13,3.34,27.81,15.8,27.81,33.15v4.45c0,24.03-16.02,41.16-54.28,41.16-11.35,0-19.8-.22-36.04-.89-4-.22-6.23-2.22-6.23-6.45v-136.38c0-4,2-6.23,6.45-6.45,10.23-.44,23.58-.89,34.48-.89,33.37,0,49.83,15.57,49.83,36.26ZM136.44,533.32v39.82h16.24c14.24,0,21.58-7.34,21.58-19.36v-3.56c0-11.12-7.12-17.35-25.14-17.35-4,0-7.79,0-12.68.44ZM136.44,595.39v41.16c8.45.67,10.46.89,16.24.89,19.35,0,27.14-7.79,27.14-19.8v-4c0-11.57-7.56-18.24-25.81-18.24h-17.58Z"/>
    <path class="st0" d="M315.08,512.41c4,0,6.45,2.22,6.45,6.23v92.55c0,31.37-15.8,49.61-49.39,49.61s-48.94-17.58-48.94-49.39v-92.77c0-4,2.22-6.23,6.23-6.23h14.02c4,0,6.23,2.22,6.23,6.23v94.77c0,15.35,8.23,23.36,22.47,23.36s22.69-8.01,22.69-23.36v-94.77c0-4,2.22-6.23,6.23-6.23h14.02Z"/>
    <path class="st0" d="M445.45,568.92v34.71c0,36.04-18.69,57.18-58.51,57.18-11.79,0-23.36-.45-34.71-1.11-4-.22-6.01-2.45-6.01-6.45v-136.15c0-4,1.56-6.01,5.12-6.23,10.23-.45,23.58-.89,37.6-.89,36.71,0,56.51,21.36,56.51,58.96ZM372.7,533.77v102.56c6.45.67,11.12.89,15.35.89,19.13,0,30.92-10.9,30.92-32.26v-37.38c0-23.36-11.57-34.26-30.92-34.26-5.12,0-10.23,0-15.35.45Z"/>
    <path class="st0" d="M567.36,568.92v34.71c0,36.04-18.69,57.18-58.51,57.18-11.79,0-23.36-.45-34.71-1.11-4-.22-6.01-2.45-6.01-6.45v-136.15c0-4,1.56-6.01,5.12-6.23,10.23-.45,23.58-.89,37.6-.89,36.71,0,56.51,21.36,56.51,58.96ZM494.61,533.77v102.56c6.45.67,11.12.89,15.35.89,19.13,0,30.92-10.9,30.92-32.26v-37.38c0-23.36-11.57-34.26-30.92-34.26-5.12,0-10.23,0-15.35.45Z"/>
    <path class="st0" d="M673.25,512.41c4.89,0,6.67,3.11,4.89,7.34l-38.93,88.1v44.05c0,4-2.22,6.23-6.23,6.23h-14.02c-4,0-6.23-2.22-6.23-6.23v-44.05l-38.93-88.1c-2-4.23,0-7.34,4.89-7.34h16.46c3.56,0,5.78,1.56,7.12,5.12l23.8,64.52,24.03-64.74c1.33-3.34,3.56-4.89,7.34-4.89h15.8Z"/>
  </g>
</svg>